<?xml version="1.0" encoding="utf-8"?>
<!-- Generator: Adobe Illustrator 27.0.1, SVG Export Plug-In . SVG Version: 6.00 Build 0)  -->
<svg version="1.1" id="Layer_1" xmlns="http://www.w3.org/2000/svg" xmlns:xlink="http://www.w3.org/1999/xlink" x="0px" y="0px"
	 viewBox="0 0 120 42" style="enable-background:new 0 0 120 42;" xml:space="preserve">
<style type="text/css">
	.st0{fill:none;stroke:#000000;stroke-miterlimit:10;}
	.st1{fill:#318C56;}
</style>
<path class="st0" d="M63.5,74.2"/>
<path class="st1" d="M12.8,30.5"/>
<path class="st1" d="M12.8,30.5"/>
<g>
	<path d="M30.5,21.7c0.2-0.9,0.3-1.6,0.4-2.3h2.4c0,0.2-0.1,0.7-0.2,1.2c0.4-0.8,1-1.4,2.3-1.4l-0.5,2.4c-1.4-0.1-2.1,0.6-2.4,2
		l-0.6,2.9h-2.4L30.5,21.7z"/>
	<path d="M37.9,23.6c0,0.1,0,0.2,0,0.4c0,0.6,0.2,1.2,0.8,1.2c0.5,0,0.8-0.3,1-0.7H42c-0.4,1.3-1.5,2.5-3.6,2.5c-2.2,0-3-1.4-3-3
		c0-1.8,1-4.5,4-4.5c2.2,0,3.1,1.2,3.1,2.9c0,0.5-0.1,1-0.2,1.4H37.9z M40.1,22.2c0-0.1,0-0.3,0-0.3c0-0.5-0.2-0.9-0.8-0.9
		c-0.6,0-1,0.5-1.2,1.2H40.1z"/>
	<path d="M45.6,23.6c0,0.1,0,0.2,0,0.4c0,0.6,0.2,1.2,0.8,1.2c0.5,0,0.8-0.3,1-0.7h2.5c-0.4,1.3-1.5,2.5-3.6,2.5c-2.2,0-3-1.4-3-3
		c0-1.8,1-4.5,4-4.5c2.2,0,3.1,1.2,3.1,2.9c0,0.5-0.1,1-0.2,1.4H45.6z M47.8,22.2c0-0.1,0-0.3,0-0.3c0-0.5-0.2-0.9-0.8-0.9
		c-0.6,0-1,0.5-1.2,1.2H47.8z"/>
	<path d="M50.5,26.7l1.8-9c0.1-0.6,0.6-1,1.2-1h0c0.8,0,1.3,0.7,1.2,1.4l-1.7,8.6H50.5z"/>
	<path d="M61,24.7c-0.2,0.8-0.3,1.7-0.4,2h-2.3c0-0.2,0-0.5,0.1-0.7c-0.4,0.5-0.9,0.9-2,0.9c-1.3,0-1.9-0.9-1.9-1.9
		c0-1.9,1.4-2.6,3.3-2.8c0.5-0.1,1-0.1,1.4-0.1l0.1-0.3c0.1-0.5,0-0.9-0.6-0.9c-0.6,0-0.7,0.4-0.9,0.7h-2.4c0.3-1.2,1.1-2.3,3.4-2.3
		c2.1,0,3.2,0.9,2.8,2.7L61,24.7z M58.9,23.5c-0.4,0-0.7,0-0.9,0.1c-0.7,0.1-1,0.5-1,0.9c0,0.3,0.2,0.6,0.6,0.6
		c0.9,0,1.1-0.8,1.3-1.4L58.9,23.5z"/>
	<path d="M63.2,21.5c0.2-0.9,0.3-1.5,0.4-2H66c0,0.2-0.1,0.6-0.1,0.8c0.3-0.4,0.9-0.9,2-0.9c1.4,0,2.1,0.9,1.7,3l-0.9,4.4h-2.4
		l0.9-4.4c0.1-0.7,0-1.1-0.5-1.1c-0.6,0-1,0.4-1.2,1.5l-0.8,3.9h-2.4L63.2,21.5z"/>
	<path d="M77.1,24.1c-0.4,1.6-1.3,2.7-3.7,2.7c-2,0-2.9-1.1-2.9-2.9c0-2.1,1.2-4.7,4-4.7c2.5,0,3.1,1.7,3,2.8h-2.4
		c0.1-0.6,0-1.1-0.7-1.1c-1,0-1.4,2-1.4,3.1c0,0.7,0.3,1.1,0.7,1.1c0.5,0,0.8-0.4,1-1.1H77.1z"/>
	<path d="M80.5,23.6c0,0.1,0,0.2,0,0.4c0,0.6,0.2,1.2,0.8,1.2c0.5,0,0.8-0.3,1-0.7h2.5c-0.4,1.3-1.5,2.5-3.6,2.5c-2.2,0-3-1.4-3-3
		c0-1.8,1-4.5,4-4.5c2.2,0,3.1,1.2,3.1,2.9c0,0.5-0.1,1-0.2,1.4H80.5z M82.7,22.2c0-0.1,0-0.3,0-0.3c0-0.5-0.2-0.9-0.8-0.9
		c-0.6,0-1,0.5-1.2,1.2H82.7z"/>
	<path d="M88.5,17.2L88.5,17.2c0.8,0,1.4,0.7,1.2,1.5l-0.4,2.1H92l0.5-2.5c0.1-0.6,0.6-1,1.2-1h0c0.8,0,1.4,0.7,1.2,1.5l-1.6,8h-2.5
		l0.8-4h-2.7l-1.1,4h-2.3l1.7-8.5C87.4,17.6,87.9,17.2,88.5,17.2z"/>
	<path d="M101.6,24.6c-0.2,0.9-0.3,1.6-0.4,2.1h-2.4c0-0.2,0.1-0.6,0.1-0.8c-0.5,0.7-1.2,1-2.1,1c-1.4,0-2-1-1.7-2.6l1-4.7h2.4
		L97.7,24c-0.1,0.6,0,1,0.5,1c0.5,0,1-0.5,1.3-1.6l0.8-3.8h2.4L101.6,24.6z"/>
	<path d="M105.7,16.7L105.7,16.7c0.8,0,1.3,0.7,1.2,1.4l-0.4,1.9c0.4-0.4,1-0.8,1.9-0.8c1.3,0,2.2,1,2.2,2.6c0,2.2-1.1,4.9-3.7,4.9
		c-0.9,0-1.4-0.4-1.6-0.7c0,0.2-0.1,0.4-0.2,0.6h-2.4c0.1-0.5,0.2-1.2,0.4-1.8l1.5-7.2C104.6,17.1,105.1,16.7,105.7,16.7z M108,22.1
		c0-0.7-0.3-1-0.8-1c-0.7,0-1.2,0.7-1.5,2.1c-0.2,1.2,0,1.8,0.7,1.8C107.5,25,108,23.1,108,22.1z"/>
</g>
<path class="st1" d="M14.1,5h20.5c2.3,0,4,2.1,3.5,4.4v0c-0.4,1.7-1.8,2.8-3.5,2.8h-8.7l-4.6,7.2h3.4c2.3,0,4,2.1,3.5,4.3l0,0
	c-0.4,1.6-1.8,2.8-3.5,2.8H19L6.7,39.8l0,0L14.1,5z"/>
</svg>
